<svg width="40" height="40" viewBox="0 0 40 40" fill="none" xmlns="http://www.w3.org/2000/svg">
<path d="M17.6667 22.9999L14.0417 19.3749C13.7361 19.0694 13.3611 18.9166 12.9167 18.9166C12.4722 18.9166 12.0833 19.0833 11.75 19.4166C11.4444 19.7221 11.2917 20.111 11.2917 20.5833C11.2917 21.0555 11.4444 21.4444 11.75 21.7499L16.5 26.4999C16.8055 26.8055 17.1944 26.9583 17.6667 26.9583C18.1389 26.9583 18.5278 26.8055 18.8333 26.4999L28.2917 17.0416C28.5972 16.736 28.75 16.361 28.75 15.9166C28.75 15.4721 28.5833 15.0833 28.25 14.7499C27.9444 14.4444 27.5555 14.2916 27.0833 14.2916C26.6111 14.2916 26.2222 14.4444 25.9167 14.7499L17.6667 22.9999ZM20 36.6666C17.6944 36.6666 15.5278 36.2288 13.5 35.3533C11.4722 34.4788 9.70833 33.2916 8.20833 31.7916C6.70833 30.2916 5.52111 28.5277 4.64666 26.4999C3.77111 24.4721 3.33333 22.3055 3.33333 19.9999C3.33333 17.6944 3.77111 15.5277 4.64666 13.4999C5.52111 11.4721 6.70833 9.70825 8.20833 8.20825C9.70833 6.70825 11.4722 5.52047 13.5 4.64492C15.5278 3.77047 17.6944 3.33325 20 3.33325C22.3056 3.33325 24.4722 3.77047 26.5 4.64492C28.5278 5.52047 30.2917 6.70825 31.7917 8.20825C33.2917 9.70825 34.4789 11.4721 35.3533 13.4999C36.2289 15.5277 36.6667 17.6944 36.6667 19.9999C36.6667 22.3055 36.2289 24.4721 35.3533 26.4999C34.4789 28.5277 33.2917 30.2916 31.7917 31.7916C30.2917 33.2916 28.5278 34.4788 26.5 35.3533C24.4722 36.2288 22.3056 36.6666 20 36.6666Z" fill="#2F48BE"/>
</svg>
