<svg width="201" height="25" viewBox="0 0 201 25" fill="none" xmlns="http://www.w3.org/2000/svg">
<path d="M0.48 11.232C0.48 9.824 0.768 8.6 1.344 7.56C1.936 6.504 2.752 5.696 3.792 5.136C4.848 4.576 6.048 4.296 7.392 4.296C9.152 4.296 10.632 4.792 11.832 5.784C13.048 6.776 13.816 8.152 14.136 9.912H8.496C8.288 9.208 7.88 8.856 7.272 8.856C6.84 8.856 6.496 9.056 6.24 9.456C6 9.856 5.88 10.448 5.88 11.232C5.88 12.016 6 12.608 6.24 13.008C6.496 13.408 6.84 13.608 7.272 13.608C7.88 13.608 8.288 13.256 8.496 12.552H14.136C13.816 14.312 13.048 15.688 11.832 16.68C10.632 17.672 9.152 18.168 7.392 18.168C6.048 18.168 4.848 17.888 3.792 17.328C2.752 16.768 1.936 15.968 1.344 14.928C0.768 13.872 0.48 12.64 0.48 11.232ZM15.105 11.232C15.105 9.808 15.345 8.576 15.825 7.536C16.321 6.48 16.993 5.68 17.841 5.136C18.689 4.576 19.641 4.296 20.697 4.296C21.577 4.296 22.337 4.48 22.977 4.848C23.617 5.2 24.105 5.688 24.441 6.312V4.464H29.745V18H24.441V16.152C24.105 16.776 23.617 17.272 22.977 17.64C22.337 17.992 21.577 18.168 20.697 18.168C19.641 18.168 18.689 17.896 17.841 17.352C16.993 16.792 16.321 15.992 15.825 14.952C15.345 13.896 15.105 12.656 15.105 11.232ZM24.441 11.232C24.441 10.512 24.257 9.952 23.889 9.552C23.521 9.152 23.049 8.952 22.473 8.952C21.897 8.952 21.425 9.152 21.057 9.552C20.689 9.952 20.505 10.512 20.505 11.232C20.505 11.952 20.689 12.512 21.057 12.912C21.425 13.312 21.897 13.512 22.473 13.512C23.049 13.512 23.521 13.312 23.889 12.912C24.257 12.512 24.441 11.952 24.441 11.232ZM50.2095 4.368C51.9375 4.368 53.2735 4.888 54.2175 5.928C55.1775 6.968 55.6575 8.376 55.6575 10.152V18H50.3535V10.824C50.3535 10.248 50.1775 9.8 49.8255 9.48C49.4895 9.144 49.0335 8.976 48.4575 8.976C47.8655 8.976 47.4015 9.144 47.0655 9.48C46.7295 9.8 46.5615 10.248 46.5615 10.824V18H41.2575V10.824C41.2575 10.248 41.0815 9.8 40.7295 9.48C40.3935 9.144 39.9375 8.976 39.3615 8.976C38.7695 8.976 38.3055 9.144 37.9695 9.48C37.6335 9.8 37.4655 10.248 37.4655 10.824V18H32.1375V4.464H37.4655V6.288C37.8495 5.712 38.3695 5.248 39.0255 4.896C39.6975 4.544 40.4815 4.368 41.3775 4.368C42.3535 4.368 43.2175 4.584 43.9695 5.016C44.7215 5.432 45.3215 6.024 45.7695 6.792C46.2655 6.088 46.8975 5.512 47.6655 5.064C48.4335 4.6 49.2815 4.368 50.2095 4.368ZM63.2936 6.312C63.6296 5.688 64.1096 5.2 64.7336 4.848C65.3736 4.48 66.1336 4.296 67.0136 4.296C68.0696 4.296 69.0216 4.576 69.8696 5.136C70.7176 5.68 71.3816 6.48 71.8616 7.536C72.3576 8.576 72.6056 9.808 72.6056 11.232C72.6056 12.656 72.3576 13.896 71.8616 14.952C71.3816 15.992 70.7176 16.792 69.8696 17.352C69.0216 17.896 68.0696 18.168 67.0136 18.168C66.1336 18.168 65.3736 17.992 64.7336 17.64C64.1096 17.272 63.6296 16.776 63.2936 16.152V24.48H57.9656V4.464H63.2936V6.312ZM67.2056 11.232C67.2056 10.512 67.0216 9.952 66.6536 9.552C66.2856 9.152 65.8136 8.952 65.2376 8.952C64.6616 8.952 64.1896 9.152 63.8216 9.552C63.4536 9.952 63.2696 10.512 63.2696 11.232C63.2696 11.952 63.4536 12.512 63.8216 12.912C64.1896 13.312 64.6616 13.512 65.2376 13.512C65.8136 13.512 66.2856 13.312 66.6536 12.912C67.0216 12.512 67.2056 11.952 67.2056 11.232ZM97.9343 0.24V18H92.6063V0.24H97.9343ZM106.773 18.168C105.413 18.168 104.189 17.888 103.101 17.328C102.013 16.768 101.157 15.968 100.533 14.928C99.9246 13.872 99.6206 12.64 99.6206 11.232C99.6206 9.824 99.9246 8.6 100.533 7.56C101.157 6.504 102.013 5.696 103.101 5.136C104.189 4.576 105.413 4.296 106.773 4.296C108.133 4.296 109.357 4.576 110.445 5.136C111.533 5.696 112.381 6.504 112.989 7.56C113.613 8.6 113.925 9.824 113.925 11.232C113.925 12.64 113.613 13.872 112.989 14.928C112.381 15.968 111.533 16.768 110.445 17.328C109.357 17.888 108.133 18.168 106.773 18.168ZM106.773 13.56C107.269 13.56 107.685 13.368 108.021 12.984C108.357 12.584 108.525 12 108.525 11.232C108.525 10.464 108.357 9.888 108.021 9.504C107.685 9.104 107.269 8.904 106.773 8.904C106.277 8.904 105.861 9.104 105.525 9.504C105.189 9.888 105.021 10.464 105.021 11.232C105.021 12 105.181 12.584 105.501 12.984C105.837 13.368 106.261 13.56 106.773 13.56ZM136.142 4.464L132.926 18H126.926L125.294 10.368L123.566 18H117.566L114.374 4.464H119.654L120.782 12.696L122.534 4.464H128.222L130.07 12.792L131.222 4.464H136.142ZM136.798 9.48C136.798 7.8 137.134 6.304 137.806 4.992C138.494 3.68 139.47 2.664 140.734 1.944C141.998 1.208 143.486 0.839999 145.198 0.839999C146.67 0.839999 147.982 1.12 149.134 1.68C150.302 2.224 151.246 3 151.966 4.008C152.702 5.016 153.19 6.192 153.43 7.536H147.814C147.558 6.976 147.19 6.544 146.71 6.24C146.246 5.92 145.71 5.76 145.102 5.76C144.206 5.76 143.494 6.096 142.966 6.768C142.454 7.44 142.198 8.344 142.198 9.48C142.198 10.616 142.454 11.52 142.966 12.192C143.494 12.864 144.206 13.2 145.102 13.2C145.71 13.2 146.246 13.048 146.71 12.744C147.19 12.424 147.558 11.984 147.814 11.424H153.43C153.19 12.768 152.702 13.944 151.966 14.952C151.246 15.96 150.302 16.744 149.134 17.304C147.982 17.848 146.67 18.12 145.198 18.12C143.486 18.12 141.998 17.76 140.734 17.04C139.47 16.304 138.494 15.28 137.806 13.968C137.134 12.656 136.798 11.16 136.798 9.48ZM161.78 18.168C160.42 18.168 159.196 17.888 158.108 17.328C157.02 16.768 156.164 15.968 155.54 14.928C154.932 13.872 154.628 12.64 154.628 11.232C154.628 9.824 154.932 8.6 155.54 7.56C156.164 6.504 157.02 5.696 158.108 5.136C159.196 4.576 160.42 4.296 161.78 4.296C163.14 4.296 164.364 4.576 165.452 5.136C166.54 5.696 167.388 6.504 167.996 7.56C168.62 8.6 168.932 9.824 168.932 11.232C168.932 12.64 168.62 13.872 167.996 14.928C167.388 15.968 166.54 16.768 165.452 17.328C164.364 17.888 163.14 18.168 161.78 18.168ZM161.78 13.56C162.276 13.56 162.692 13.368 163.028 12.984C163.364 12.584 163.532 12 163.532 11.232C163.532 10.464 163.364 9.888 163.028 9.504C162.692 9.104 162.276 8.904 161.78 8.904C161.284 8.904 160.868 9.104 160.532 9.504C160.196 9.888 160.028 10.464 160.028 11.232C160.028 12 160.188 12.584 160.508 12.984C160.844 13.368 161.268 13.56 161.78 13.56ZM169.886 11.232C169.886 9.808 170.126 8.576 170.606 7.536C171.102 6.48 171.774 5.68 172.622 5.136C173.47 4.576 174.422 4.296 175.478 4.296C176.358 4.296 177.11 4.48 177.734 4.848C178.374 5.2 178.862 5.688 179.198 6.312V0.24H184.526V18H179.198V16.152C178.862 16.776 178.374 17.272 177.734 17.64C177.11 17.992 176.358 18.168 175.478 18.168C174.422 18.168 173.47 17.896 172.622 17.352C171.774 16.792 171.102 15.992 170.606 14.952C170.126 13.896 169.886 12.656 169.886 11.232ZM179.222 11.232C179.222 10.512 179.038 9.952 178.67 9.552C178.302 9.152 177.83 8.952 177.254 8.952C176.678 8.952 176.206 9.152 175.838 9.552C175.47 9.952 175.286 10.512 175.286 11.232C175.286 11.952 175.47 12.512 175.838 12.912C176.206 13.312 176.678 13.512 177.254 13.512C177.83 13.512 178.302 13.312 178.67 12.912C179.038 12.512 179.222 11.952 179.222 11.232ZM200.023 11.112C200.023 11.48 199.999 11.832 199.951 12.168H191.383C191.463 13.336 191.951 13.92 192.847 13.92C193.423 13.92 193.839 13.656 194.095 13.128H199.735C199.543 14.088 199.135 14.952 198.511 15.72C197.903 16.472 197.127 17.072 196.183 17.52C195.255 17.952 194.231 18.168 193.111 18.168C191.767 18.168 190.567 17.888 189.511 17.328C188.471 16.768 187.655 15.968 187.063 14.928C186.487 13.872 186.199 12.64 186.199 11.232C186.199 9.824 186.487 8.6 187.063 7.56C187.655 6.504 188.471 5.696 189.511 5.136C190.567 4.576 191.767 4.296 193.111 4.296C194.455 4.296 195.647 4.576 196.687 5.136C197.743 5.68 198.559 6.464 199.135 7.488C199.727 8.512 200.023 9.72 200.023 11.112ZM194.623 9.84C194.623 9.392 194.479 9.056 194.191 8.832C193.903 8.592 193.543 8.472 193.111 8.472C192.167 8.472 191.615 8.928 191.455 9.84H194.623Z" fill="#313131"/>
<path d="M90.4541 19.008V24.192H74.2541V19.008H90.4541Z" fill="#2F48BE"/>
</svg>
