<svg width="1280" height="308" viewBox="0 0 1280 308" fill="none" xmlns="http://www.w3.org/2000/svg">
<rect width="1280" height="308" fill="white"/>
<path d="M996.75 24.375C996.75 33.9709 988.971 41.75 979.375 41.75C969.779 41.75 962 33.9709 962 24.375C962 14.7791 969.779 7 979.375 7C988.971 7 996.75 14.7791 996.75 24.375Z" fill="#F5F5F5"/>
<path d="M996.75 73.025C996.75 82.6209 988.971 90.4 979.375 90.4C969.779 90.4 962 82.6209 962 73.025C962 63.4291 969.779 55.65 979.375 55.65C988.971 55.65 996.75 63.4291 996.75 73.025Z" fill="#F5F5F5"/>
<path d="M996.75 121.675C996.75 131.271 988.971 139.05 979.375 139.05C969.779 139.05 962 131.271 962 121.675C962 112.079 969.779 104.3 979.375 104.3C988.971 104.3 996.75 112.079 996.75 121.675Z" fill="#F5F5F5"/>
<path d="M996.75 170.325C996.75 179.921 988.971 187.7 979.375 187.7C969.779 187.7 962 179.921 962 170.325C962 160.729 969.779 152.95 979.375 152.95C988.971 152.95 996.75 160.729 996.75 170.325Z" fill="#F5F5F5"/>
<path d="M996.75 218.975C996.75 228.571 988.971 236.35 979.375 236.35C969.779 236.35 962 228.571 962 218.975C962 209.379 969.779 201.6 979.375 201.6C988.971 201.6 996.75 209.379 996.75 218.975Z" fill="#F5F5F5"/>
<path d="M996.75 267.625C996.75 277.221 988.971 285 979.375 285C969.779 285 962 277.221 962 267.625C962 258.029 969.779 250.25 979.375 250.25C988.971 250.25 996.75 258.029 996.75 267.625Z" fill="#F5F5F5"/>
<path d="M1045.4 24.375C1045.4 33.9709 1037.62 41.75 1028.03 41.75C1018.43 41.75 1010.65 33.9709 1010.65 24.375C1010.65 14.7791 1018.43 7 1028.03 7C1037.62 7 1045.4 14.7791 1045.4 24.375Z" fill="#F5F5F5"/>
<path d="M1045.4 73.025C1045.4 82.6209 1037.62 90.4 1028.03 90.4C1018.43 90.4 1010.65 82.6209 1010.65 73.025C1010.65 63.4291 1018.43 55.65 1028.03 55.65C1037.62 55.65 1045.4 63.4291 1045.4 73.025Z" fill="#F5F5F5"/>
<path d="M1045.4 121.675C1045.4 131.271 1037.62 139.05 1028.03 139.05C1018.43 139.05 1010.65 131.271 1010.65 121.675C1010.65 112.079 1018.43 104.3 1028.03 104.3C1037.62 104.3 1045.4 112.079 1045.4 121.675Z" fill="#F5F5F5"/>
<path d="M1045.4 170.325C1045.4 179.921 1037.62 187.7 1028.03 187.7C1018.43 187.7 1010.65 179.921 1010.65 170.325C1010.65 160.729 1018.43 152.95 1028.03 152.95C1037.62 152.95 1045.4 160.729 1045.4 170.325Z" fill="#F5F5F5"/>
<path d="M1045.4 218.975C1045.4 228.571 1037.62 236.35 1028.03 236.35C1018.43 236.35 1010.65 228.571 1010.65 218.975C1010.65 209.379 1018.43 201.6 1028.03 201.6C1037.62 201.6 1045.4 209.379 1045.4 218.975Z" fill="#F5F5F5"/>
<path d="M1045.4 267.625C1045.4 277.221 1037.62 285 1028.03 285C1018.43 285 1010.65 277.221 1010.65 267.625C1010.65 258.029 1018.43 250.25 1028.03 250.25C1037.62 250.25 1045.4 258.029 1045.4 267.625Z" fill="#F5F5F5"/>
<path d="M1094.05 24.375C1094.05 33.9709 1086.27 41.75 1076.67 41.75C1067.08 41.75 1059.3 33.9709 1059.3 24.375C1059.3 14.7791 1067.08 7 1076.67 7C1086.27 7 1094.05 14.7791 1094.05 24.375Z" fill="#F5F5F5"/>
<path d="M1094.05 73.025C1094.05 82.6209 1086.27 90.4 1076.67 90.4C1067.08 90.4 1059.3 82.6209 1059.3 73.025C1059.3 63.4291 1067.08 55.65 1076.67 55.65C1086.27 55.65 1094.05 63.4291 1094.05 73.025Z" fill="#F5F5F5"/>
<path d="M1094.05 121.675C1094.05 131.271 1086.27 139.05 1076.67 139.05C1067.08 139.05 1059.3 131.271 1059.3 121.675C1059.3 112.079 1067.08 104.3 1076.67 104.3C1086.27 104.3 1094.05 112.079 1094.05 121.675Z" fill="#F5F5F5"/>
<path d="M1094.05 170.325C1094.05 179.921 1086.27 187.7 1076.67 187.7C1067.08 187.7 1059.3 179.921 1059.3 170.325C1059.3 160.729 1067.08 152.95 1076.67 152.95C1086.27 152.95 1094.05 160.729 1094.05 170.325Z" fill="#F5F5F5"/>
<path d="M1094.05 218.975C1094.05 228.571 1086.27 236.35 1076.67 236.35C1067.08 236.35 1059.3 228.571 1059.3 218.975C1059.3 209.379 1067.08 201.6 1076.67 201.6C1086.27 201.6 1094.05 209.379 1094.05 218.975Z" fill="#F5F5F5"/>
<path d="M1094.05 267.625C1094.05 277.221 1086.27 285 1076.67 285C1067.08 285 1059.3 277.221 1059.3 267.625C1059.3 258.029 1067.08 250.25 1076.67 250.25C1086.27 250.25 1094.05 258.029 1094.05 267.625Z" fill="#F5F5F5"/>
<path d="M1142.7 24.375C1142.7 33.9709 1134.92 41.75 1125.32 41.75C1115.73 41.75 1107.95 33.9709 1107.95 24.375C1107.95 14.7791 1115.73 7 1125.32 7C1134.92 7 1142.7 14.7791 1142.7 24.375Z" fill="#F5F5F5"/>
<path d="M1142.7 73.025C1142.7 82.6209 1134.92 90.4 1125.32 90.4C1115.73 90.4 1107.95 82.6209 1107.95 73.025C1107.95 63.4291 1115.73 55.65 1125.32 55.65C1134.92 55.65 1142.7 63.4291 1142.7 73.025Z" fill="#F5F5F5"/>
<path d="M1142.7 121.675C1142.7 131.271 1134.92 139.05 1125.32 139.05C1115.73 139.05 1107.95 131.271 1107.95 121.675C1107.95 112.079 1115.73 104.3 1125.32 104.3C1134.92 104.3 1142.7 112.079 1142.7 121.675Z" fill="#F5F5F5"/>
<path d="M1142.7 170.325C1142.7 179.921 1134.92 187.7 1125.32 187.7C1115.73 187.7 1107.95 179.921 1107.95 170.325C1107.95 160.729 1115.73 152.95 1125.32 152.95C1134.92 152.95 1142.7 160.729 1142.7 170.325Z" fill="#F5F5F5"/>
<path d="M1142.7 218.975C1142.7 228.571 1134.92 236.35 1125.32 236.35C1115.73 236.35 1107.95 228.571 1107.95 218.975C1107.95 209.379 1115.73 201.6 1125.32 201.6C1134.92 201.6 1142.7 209.379 1142.7 218.975Z" fill="#F5F5F5"/>
<path d="M1142.7 267.625C1142.7 277.221 1134.92 285 1125.32 285C1115.73 285 1107.95 277.221 1107.95 267.625C1107.95 258.029 1115.73 250.25 1125.32 250.25C1134.92 250.25 1142.7 258.029 1142.7 267.625Z" fill="#F5F5F5"/>
<path d="M1191.35 24.375C1191.35 33.9709 1183.57 41.75 1173.97 41.75C1164.38 41.75 1156.6 33.9709 1156.6 24.375C1156.6 14.7791 1164.38 7 1173.97 7C1183.57 7 1191.35 14.7791 1191.35 24.375Z" fill="#F5F5F5"/>
<path d="M1191.35 73.025C1191.35 82.6209 1183.57 90.4 1173.97 90.4C1164.38 90.4 1156.6 82.6209 1156.6 73.025C1156.6 63.4291 1164.38 55.65 1173.97 55.65C1183.57 55.65 1191.35 63.4291 1191.35 73.025Z" fill="#F5F5F5"/>
<path d="M1191.35 121.675C1191.35 131.271 1183.57 139.05 1173.97 139.05C1164.38 139.05 1156.6 131.271 1156.6 121.675C1156.6 112.079 1164.38 104.3 1173.97 104.3C1183.57 104.3 1191.35 112.079 1191.35 121.675Z" fill="#F5F5F5"/>
<path d="M1191.35 170.325C1191.35 179.921 1183.57 187.7 1173.97 187.7C1164.38 187.7 1156.6 179.921 1156.6 170.325C1156.6 160.729 1164.38 152.95 1173.97 152.95C1183.57 152.95 1191.35 160.729 1191.35 170.325Z" fill="#F5F5F5"/>
<path d="M1191.35 218.975C1191.35 228.571 1183.57 236.35 1173.97 236.35C1164.38 236.35 1156.6 228.571 1156.6 218.975C1156.6 209.379 1164.38 201.6 1173.97 201.6C1183.57 201.6 1191.35 209.379 1191.35 218.975Z" fill="#F5F5F5"/>
<path d="M1191.35 267.625C1191.35 277.221 1183.57 285 1173.97 285C1164.38 285 1156.6 277.221 1156.6 267.625C1156.6 258.029 1164.38 250.25 1173.97 250.25C1183.57 250.25 1191.35 258.029 1191.35 267.625Z" fill="#F5F5F5"/>
<path d="M1240 24.375C1240 33.9709 1232.22 41.75 1222.62 41.75C1213.03 41.75 1205.25 33.9709 1205.25 24.375C1205.25 14.7791 1213.03 7 1222.62 7C1232.22 7 1240 14.7791 1240 24.375Z" fill="#F5F5F5"/>
<path d="M1240 73.025C1240 82.6209 1232.22 90.4 1222.62 90.4C1213.03 90.4 1205.25 82.6209 1205.25 73.025C1205.25 63.4291 1213.03 55.65 1222.62 55.65C1232.22 55.65 1240 63.4291 1240 73.025Z" fill="#F5F5F5"/>
<path d="M1240 121.675C1240 131.271 1232.22 139.05 1222.62 139.05C1213.03 139.05 1205.25 131.271 1205.25 121.675C1205.25 112.079 1213.03 104.3 1222.62 104.3C1232.22 104.3 1240 112.079 1240 121.675Z" fill="#F5F5F5"/>
<path d="M1240 170.325C1240 179.921 1232.22 187.7 1222.62 187.7C1213.03 187.7 1205.25 179.921 1205.25 170.325C1205.25 160.729 1213.03 152.95 1222.62 152.95C1232.22 152.95 1240 160.729 1240 170.325Z" fill="#F5F5F5"/>
<path d="M1240 218.975C1240 228.571 1232.22 236.35 1222.62 236.35C1213.03 236.35 1205.25 228.571 1205.25 218.975C1205.25 209.379 1213.03 201.6 1222.62 201.6C1232.22 201.6 1240 209.379 1240 218.975Z" fill="#F5F5F5"/>
<path d="M1240 267.625C1240 277.221 1232.22 285 1222.62 285C1213.03 285 1205.25 277.221 1205.25 267.625C1205.25 258.029 1213.03 250.25 1222.62 250.25C1232.22 250.25 1240 258.029 1240 267.625Z" fill="#F5F5F5"/>
</svg>
