<svg width="1280" height="464" viewBox="0 0 1280 464" fill="none" xmlns="http://www.w3.org/2000/svg">
<rect width="1280" height="464" fill="white"/>
<path d="M50.75 45.375C50.75 54.9709 42.9709 62.75 33.375 62.75C23.7791 62.75 16 54.9709 16 45.375C16 35.7791 23.7791 28 33.375 28C42.9709 28 50.75 35.7791 50.75 45.375Z" fill="#F5F5F5"/>
<path d="M50.75 94.025C50.75 103.621 42.9709 111.4 33.375 111.4C23.7791 111.4 16 103.621 16 94.025C16 84.4291 23.7791 76.65 33.375 76.65C42.9709 76.65 50.75 84.4291 50.75 94.025Z" fill="#F5F5F5"/>
<path d="M50.75 142.675C50.75 152.271 42.9709 160.05 33.375 160.05C23.7791 160.05 16 152.271 16 142.675C16 133.079 23.7791 125.3 33.375 125.3C42.9709 125.3 50.75 133.079 50.75 142.675Z" fill="#F5F5F5"/>
<path d="M50.75 191.325C50.75 200.921 42.9709 208.7 33.375 208.7C23.7791 208.7 16 200.921 16 191.325C16 181.729 23.7791 173.95 33.375 173.95C42.9709 173.95 50.75 181.729 50.75 191.325Z" fill="#F5F5F5"/>
<path d="M50.75 239.975C50.75 249.571 42.9709 257.35 33.375 257.35C23.7791 257.35 16 249.571 16 239.975C16 230.379 23.7791 222.6 33.375 222.6C42.9709 222.6 50.75 230.379 50.75 239.975Z" fill="#F5F5F5"/>
<path d="M50.75 288.625C50.75 298.221 42.9709 306 33.375 306C23.7791 306 16 298.221 16 288.625C16 279.029 23.7791 271.25 33.375 271.25C42.9709 271.25 50.75 279.029 50.75 288.625Z" fill="#F5F5F5"/>
<path d="M99.4 45.375C99.4 54.9709 91.6209 62.75 82.025 62.75C72.4291 62.75 64.65 54.9709 64.65 45.375C64.65 35.7791 72.4291 28 82.025 28C91.6209 28 99.4 35.7791 99.4 45.375Z" fill="#F5F5F5"/>
<path d="M99.4 94.025C99.4 103.621 91.6209 111.4 82.025 111.4C72.4291 111.4 64.65 103.621 64.65 94.025C64.65 84.4291 72.4291 76.65 82.025 76.65C91.6209 76.65 99.4 84.4291 99.4 94.025Z" fill="#F5F5F5"/>
<path d="M99.4 142.675C99.4 152.271 91.6209 160.05 82.025 160.05C72.4291 160.05 64.65 152.271 64.65 142.675C64.65 133.079 72.4291 125.3 82.025 125.3C91.6209 125.3 99.4 133.079 99.4 142.675Z" fill="#F5F5F5"/>
<path d="M99.4 191.325C99.4 200.921 91.6209 208.7 82.025 208.7C72.4291 208.7 64.65 200.921 64.65 191.325C64.65 181.729 72.4291 173.95 82.025 173.95C91.6209 173.95 99.4 181.729 99.4 191.325Z" fill="#F5F5F5"/>
<path d="M99.4 239.975C99.4 249.571 91.6209 257.35 82.025 257.35C72.4291 257.35 64.65 249.571 64.65 239.975C64.65 230.379 72.4291 222.6 82.025 222.6C91.6209 222.6 99.4 230.379 99.4 239.975Z" fill="#F5F5F5"/>
<path d="M99.4 288.625C99.4 298.221 91.6209 306 82.025 306C72.4291 306 64.65 298.221 64.65 288.625C64.65 279.029 72.4291 271.25 82.025 271.25C91.6209 271.25 99.4 279.029 99.4 288.625Z" fill="#F5F5F5"/>
<path d="M148.05 45.375C148.05 54.9709 140.271 62.75 130.675 62.75C121.079 62.75 113.3 54.9709 113.3 45.375C113.3 35.7791 121.079 28 130.675 28C140.271 28 148.05 35.7791 148.05 45.375Z" fill="#F5F5F5"/>
<path d="M148.05 94.025C148.05 103.621 140.271 111.4 130.675 111.4C121.079 111.4 113.3 103.621 113.3 94.025C113.3 84.4291 121.079 76.65 130.675 76.65C140.271 76.65 148.05 84.4291 148.05 94.025Z" fill="#F5F5F5"/>
<path d="M148.05 142.675C148.05 152.271 140.271 160.05 130.675 160.05C121.079 160.05 113.3 152.271 113.3 142.675C113.3 133.079 121.079 125.3 130.675 125.3C140.271 125.3 148.05 133.079 148.05 142.675Z" fill="#F5F5F5"/>
<path d="M148.05 191.325C148.05 200.921 140.271 208.7 130.675 208.7C121.079 208.7 113.3 200.921 113.3 191.325C113.3 181.729 121.079 173.95 130.675 173.95C140.271 173.95 148.05 181.729 148.05 191.325Z" fill="#F5F5F5"/>
<path d="M148.05 239.975C148.05 249.571 140.271 257.35 130.675 257.35C121.079 257.35 113.3 249.571 113.3 239.975C113.3 230.379 121.079 222.6 130.675 222.6C140.271 222.6 148.05 230.379 148.05 239.975Z" fill="#F5F5F5"/>
<path d="M148.05 288.625C148.05 298.221 140.271 306 130.675 306C121.079 306 113.3 298.221 113.3 288.625C113.3 279.029 121.079 271.25 130.675 271.25C140.271 271.25 148.05 279.029 148.05 288.625Z" fill="#F5F5F5"/>
<path d="M196.7 45.375C196.7 54.9709 188.921 62.75 179.325 62.75C169.729 62.75 161.95 54.9709 161.95 45.375C161.95 35.7791 169.729 28 179.325 28C188.921 28 196.7 35.7791 196.7 45.375Z" fill="#F5F5F5"/>
<path d="M196.7 94.025C196.7 103.621 188.921 111.4 179.325 111.4C169.729 111.4 161.95 103.621 161.95 94.025C161.95 84.4291 169.729 76.65 179.325 76.65C188.921 76.65 196.7 84.4291 196.7 94.025Z" fill="#F5F5F5"/>
<path d="M196.7 142.675C196.7 152.271 188.921 160.05 179.325 160.05C169.729 160.05 161.95 152.271 161.95 142.675C161.95 133.079 169.729 125.3 179.325 125.3C188.921 125.3 196.7 133.079 196.7 142.675Z" fill="#F5F5F5"/>
<path d="M196.7 191.325C196.7 200.921 188.921 208.7 179.325 208.7C169.729 208.7 161.95 200.921 161.95 191.325C161.95 181.729 169.729 173.95 179.325 173.95C188.921 173.95 196.7 181.729 196.7 191.325Z" fill="#F5F5F5"/>
<path d="M196.7 239.975C196.7 249.571 188.921 257.35 179.325 257.35C169.729 257.35 161.95 249.571 161.95 239.975C161.95 230.379 169.729 222.6 179.325 222.6C188.921 222.6 196.7 230.379 196.7 239.975Z" fill="#F5F5F5"/>
<path d="M196.7 288.625C196.7 298.221 188.921 306 179.325 306C169.729 306 161.95 298.221 161.95 288.625C161.95 279.029 169.729 271.25 179.325 271.25C188.921 271.25 196.7 279.029 196.7 288.625Z" fill="#F5F5F5"/>
<path d="M245.35 45.375C245.35 54.9709 237.571 62.75 227.975 62.75C218.379 62.75 210.6 54.9709 210.6 45.375C210.6 35.7791 218.379 28 227.975 28C237.571 28 245.35 35.7791 245.35 45.375Z" fill="#F5F5F5"/>
<path d="M245.35 94.025C245.35 103.621 237.571 111.4 227.975 111.4C218.379 111.4 210.6 103.621 210.6 94.025C210.6 84.4291 218.379 76.65 227.975 76.65C237.571 76.65 245.35 84.4291 245.35 94.025Z" fill="#F5F5F5"/>
<path d="M245.35 142.675C245.35 152.271 237.571 160.05 227.975 160.05C218.379 160.05 210.6 152.271 210.6 142.675C210.6 133.079 218.379 125.3 227.975 125.3C237.571 125.3 245.35 133.079 245.35 142.675Z" fill="#F5F5F5"/>
<path d="M245.35 191.325C245.35 200.921 237.571 208.7 227.975 208.7C218.379 208.7 210.6 200.921 210.6 191.325C210.6 181.729 218.379 173.95 227.975 173.95C237.571 173.95 245.35 181.729 245.35 191.325Z" fill="#F5F5F5"/>
<path d="M245.35 239.975C245.35 249.571 237.571 257.35 227.975 257.35C218.379 257.35 210.6 249.571 210.6 239.975C210.6 230.379 218.379 222.6 227.975 222.6C237.571 222.6 245.35 230.379 245.35 239.975Z" fill="#F5F5F5"/>
<path d="M245.35 288.625C245.35 298.221 237.571 306 227.975 306C218.379 306 210.6 298.221 210.6 288.625C210.6 279.029 218.379 271.25 227.975 271.25C237.571 271.25 245.35 279.029 245.35 288.625Z" fill="#F5F5F5"/>
<path d="M294 45.375C294 54.9709 286.221 62.75 276.625 62.75C267.029 62.75 259.25 54.9709 259.25 45.375C259.25 35.7791 267.029 28 276.625 28C286.221 28 294 35.7791 294 45.375Z" fill="#F5F5F5"/>
<path d="M294 94.025C294 103.621 286.221 111.4 276.625 111.4C267.029 111.4 259.25 103.621 259.25 94.025C259.25 84.4291 267.029 76.65 276.625 76.65C286.221 76.65 294 84.4291 294 94.025Z" fill="#F5F5F5"/>
<path d="M294 142.675C294 152.271 286.221 160.05 276.625 160.05C267.029 160.05 259.25 152.271 259.25 142.675C259.25 133.079 267.029 125.3 276.625 125.3C286.221 125.3 294 133.079 294 142.675Z" fill="#F5F5F5"/>
<path d="M294 191.325C294 200.921 286.221 208.7 276.625 208.7C267.029 208.7 259.25 200.921 259.25 191.325C259.25 181.729 267.029 173.95 276.625 173.95C286.221 173.95 294 181.729 294 191.325Z" fill="#F5F5F5"/>
<path d="M294 239.975C294 249.571 286.221 257.35 276.625 257.35C267.029 257.35 259.25 249.571 259.25 239.975C259.25 230.379 267.029 222.6 276.625 222.6C286.221 222.6 294 230.379 294 239.975Z" fill="#F5F5F5"/>
<path d="M294 288.625C294 298.221 286.221 306 276.625 306C267.029 306 259.25 298.221 259.25 288.625C259.25 279.029 267.029 271.25 276.625 271.25C286.221 271.25 294 279.029 294 288.625Z" fill="#F5F5F5"/>
</svg>
