<svg width="212" height="48" viewBox="0 0 212 48" fill="none" xmlns="http://www.w3.org/2000/svg">
<path d="M0 4.8C0 2.14903 2.14903 0 4.8 0H43.2C45.851 0 48 2.14903 48 4.8V43.2C48 45.851 45.851 48 43.2 48H4.8C2.14903 48 0 45.851 0 43.2V4.8Z" fill="#F0E714"/>
<path d="M31.5456 35.2944V37.7136H16.224V35.2944H31.5456Z" fill="#101C26"/>
<path d="M64.36 35.924C64.36 34.868 64.576 33.95 65.008 33.17C65.452 32.378 66.064 31.772 66.844 31.352C67.636 30.932 68.536 30.722 69.544 30.722C70.864 30.722 71.974 31.094 72.874 31.838C73.786 32.582 74.362 33.614 74.602 34.934H70.372C70.216 34.406 69.91 34.142 69.454 34.142C69.13 34.142 68.872 34.292 68.68 34.592C68.5 34.892 68.41 35.336 68.41 35.924C68.41 36.512 68.5 36.956 68.68 37.256C68.872 37.556 69.13 37.706 69.454 37.706C69.91 37.706 70.216 37.442 70.372 36.914H74.602C74.362 38.234 73.786 39.266 72.874 40.01C71.974 40.754 70.864 41.126 69.544 41.126C68.536 41.126 67.636 40.916 66.844 40.496C66.064 40.076 65.452 39.476 65.008 38.696C64.576 37.904 64.36 36.98 64.36 35.924Z" fill="white"/>
<path d="M75.3288 35.924C75.3288 34.856 75.5088 33.932 75.8688 33.152C76.2408 32.36 76.7448 31.76 77.3808 31.352C78.0168 30.932 78.7308 30.722 79.5228 30.722C80.1828 30.722 80.7527 30.86 81.2327 31.136C81.7128 31.4 82.0788 31.766 82.3307 32.234V30.848H86.3088V41H82.3307V39.614C82.0788 40.082 81.7128 40.454 81.2327 40.73C80.7527 40.994 80.1828 41.126 79.5228 41.126C78.7308 41.126 78.0168 40.922 77.3808 40.514C76.7448 40.094 76.2408 39.494 75.8688 38.714C75.5088 37.922 75.3288 36.992 75.3288 35.924ZM82.3307 35.924C82.3307 35.384 82.1927 34.964 81.9167 34.664C81.6407 34.364 81.2868 34.214 80.8548 34.214C80.4228 34.214 80.0687 34.364 79.7927 34.664C79.5167 34.964 79.3788 35.384 79.3788 35.924C79.3788 36.464 79.5167 36.884 79.7927 37.184C80.0687 37.484 80.4228 37.634 80.8548 37.634C81.2868 37.634 81.6407 37.484 81.9167 37.184C82.1927 36.884 82.3307 36.464 82.3307 35.924Z" fill="white"/>
<path d="M101.657 30.776C102.953 30.776 103.955 31.166 104.663 31.946C105.383 32.726 105.743 33.782 105.743 35.114V41H101.765V35.618C101.765 35.186 101.633 34.85 101.369 34.61C101.117 34.358 100.775 34.232 100.343 34.232C99.8991 34.232 99.5511 34.358 99.2991 34.61C99.0471 34.85 98.9211 35.186 98.9211 35.618V41H94.9431V35.618C94.9431 35.186 94.8111 34.85 94.5471 34.61C94.2951 34.358 93.9531 34.232 93.5211 34.232C93.0771 34.232 92.7291 34.358 92.4771 34.61C92.2251 34.85 92.0991 35.186 92.0991 35.618V41H88.1031V30.848H92.0991V32.216C92.3871 31.784 92.7771 31.436 93.2691 31.172C93.7731 30.908 94.3611 30.776 95.0331 30.776C95.7651 30.776 96.4131 30.938 96.9771 31.262C97.5411 31.574 97.9911 32.018 98.3271 32.594C98.6991 32.066 99.1731 31.634 99.7491 31.298C100.325 30.95 100.961 30.776 101.657 30.776Z" fill="white"/>
<path d="M111.47 32.234C111.722 31.766 112.082 31.4 112.55 31.136C113.03 30.86 113.6 30.722 114.26 30.722C115.052 30.722 115.766 30.932 116.402 31.352C117.038 31.76 117.536 32.36 117.896 33.152C118.268 33.932 118.454 34.856 118.454 35.924C118.454 36.992 118.268 37.922 117.896 38.714C117.536 39.494 117.038 40.094 116.402 40.514C115.766 40.922 115.052 41.126 114.26 41.126C113.6 41.126 113.03 40.994 112.55 40.73C112.082 40.454 111.722 40.082 111.47 39.614V45.86H107.474V30.848H111.47V32.234ZM114.404 35.924C114.404 35.384 114.266 34.964 113.99 34.664C113.714 34.364 113.36 34.214 112.928 34.214C112.496 34.214 112.142 34.364 111.866 34.664C111.59 34.964 111.452 35.384 111.452 35.924C111.452 36.464 111.59 36.884 111.866 37.184C112.142 37.484 112.496 37.634 112.928 37.634C113.36 37.634 113.714 37.484 113.99 37.184C114.266 36.884 114.404 36.464 114.404 35.924Z" fill="white"/>
<path d="M131.841 41.756V45.644H119.691V41.756H131.841Z" fill="#F0E714"/>
<path d="M137.451 27.68V41H133.455V27.68H137.451Z" fill="white"/>
<path d="M144.079 41.126C143.059 41.126 142.141 40.916 141.325 40.496C140.509 40.076 139.867 39.476 139.399 38.696C138.943 37.904 138.715 36.98 138.715 35.924C138.715 34.868 138.943 33.95 139.399 33.17C139.867 32.378 140.509 31.772 141.325 31.352C142.141 30.932 143.059 30.722 144.079 30.722C145.099 30.722 146.017 30.932 146.833 31.352C147.649 31.772 148.285 32.378 148.741 33.17C149.209 33.95 149.443 34.868 149.443 35.924C149.443 36.98 149.209 37.904 148.741 38.696C148.285 39.476 147.649 40.076 146.833 40.496C146.017 40.916 145.099 41.126 144.079 41.126ZM144.079 37.67C144.451 37.67 144.763 37.526 145.015 37.238C145.267 36.938 145.393 36.5 145.393 35.924C145.393 35.348 145.267 34.916 145.015 34.628C144.763 34.328 144.451 34.178 144.079 34.178C143.707 34.178 143.395 34.328 143.143 34.628C142.891 34.916 142.765 35.348 142.765 35.924C142.765 36.5 142.885 36.938 143.125 37.238C143.377 37.526 143.695 37.67 144.079 37.67Z" fill="white"/>
<path d="M166.107 30.848L163.695 41H159.195L157.971 35.276L156.675 41H152.175L149.781 30.848H153.741L154.587 37.022L155.901 30.848H160.167L161.553 37.094L162.417 30.848H166.107Z" fill="white"/>
<path d="M166.419 35.924C166.419 34.868 166.635 33.95 167.067 33.17C167.511 32.378 168.123 31.772 168.903 31.352C169.695 30.932 170.595 30.722 171.603 30.722C172.923 30.722 174.033 31.094 174.933 31.838C175.845 32.582 176.421 33.614 176.661 34.934H172.431C172.275 34.406 171.969 34.142 171.513 34.142C171.189 34.142 170.931 34.292 170.739 34.592C170.559 34.892 170.469 35.336 170.469 35.924C170.469 36.512 170.559 36.956 170.739 37.256C170.931 37.556 171.189 37.706 171.513 37.706C171.969 37.706 172.275 37.442 172.431 36.914H176.661C176.421 38.234 175.845 39.266 174.933 40.01C174.033 40.754 172.923 41.126 171.603 41.126C170.595 41.126 169.695 40.916 168.903 40.496C168.123 40.076 167.511 39.476 167.067 38.696C166.635 37.904 166.419 36.98 166.419 35.924Z" fill="white"/>
<path d="M182.751 41.126C181.731 41.126 180.813 40.916 179.997 40.496C179.181 40.076 178.539 39.476 178.071 38.696C177.615 37.904 177.387 36.98 177.387 35.924C177.387 34.868 177.615 33.95 178.071 33.17C178.539 32.378 179.181 31.772 179.997 31.352C180.813 30.932 181.731 30.722 182.751 30.722C183.771 30.722 184.689 30.932 185.505 31.352C186.321 31.772 186.957 32.378 187.413 33.17C187.881 33.95 188.115 34.868 188.115 35.924C188.115 36.98 187.881 37.904 187.413 38.696C186.957 39.476 186.321 40.076 185.505 40.496C184.689 40.916 183.771 41.126 182.751 41.126ZM182.751 37.67C183.123 37.67 183.435 37.526 183.687 37.238C183.939 36.938 184.065 36.5 184.065 35.924C184.065 35.348 183.939 34.916 183.687 34.628C183.435 34.328 183.123 34.178 182.751 34.178C182.379 34.178 182.067 34.328 181.815 34.628C181.563 34.916 181.437 35.348 181.437 35.924C181.437 36.5 181.557 36.938 181.797 37.238C182.049 37.526 182.367 37.67 182.751 37.67Z" fill="white"/>
<path d="M188.831 35.924C188.831 34.856 189.011 33.932 189.371 33.152C189.743 32.36 190.247 31.76 190.883 31.352C191.519 30.932 192.233 30.722 193.025 30.722C193.685 30.722 194.249 30.86 194.717 31.136C195.197 31.4 195.563 31.766 195.815 32.234V27.68H199.811V41H195.815V39.614C195.563 40.082 195.197 40.454 194.717 40.73C194.249 40.994 193.685 41.126 193.025 41.126C192.233 41.126 191.519 40.922 190.883 40.514C190.247 40.094 189.743 39.494 189.371 38.714C189.011 37.922 188.831 36.992 188.831 35.924ZM195.833 35.924C195.833 35.384 195.695 34.964 195.419 34.664C195.143 34.364 194.789 34.214 194.357 34.214C193.925 34.214 193.571 34.364 193.295 34.664C193.019 34.964 192.881 35.384 192.881 35.924C192.881 36.464 193.019 36.884 193.295 37.184C193.571 37.484 193.925 37.634 194.357 37.634C194.789 37.634 195.143 37.484 195.419 37.184C195.695 36.884 195.833 36.464 195.833 35.924Z" fill="white"/>
<path d="M211.433 35.834C211.433 36.11 211.415 36.374 211.379 36.626H204.953C205.013 37.502 205.379 37.94 206.051 37.94C206.483 37.94 206.795 37.742 206.987 37.346H211.217C211.073 38.066 210.767 38.714 210.299 39.29C209.843 39.854 209.261 40.304 208.553 40.64C207.857 40.964 207.089 41.126 206.249 41.126C205.241 41.126 204.341 40.916 203.549 40.496C202.769 40.076 202.157 39.476 201.713 38.696C201.281 37.904 201.065 36.98 201.065 35.924C201.065 34.868 201.281 33.95 201.713 33.17C202.157 32.378 202.769 31.772 203.549 31.352C204.341 30.932 205.241 30.722 206.249 30.722C207.257 30.722 208.151 30.932 208.931 31.352C209.723 31.76 210.335 32.348 210.767 33.116C211.211 33.884 211.433 34.79 211.433 35.834ZM207.383 34.88C207.383 34.544 207.275 34.292 207.059 34.124C206.843 33.944 206.573 33.854 206.249 33.854C205.541 33.854 205.127 34.196 205.007 34.88H207.383Z" fill="white"/>
</svg>
