<svg width="64" height="48" viewBox="0 0 64 48" fill="none" xmlns="http://www.w3.org/2000/svg">
<path d="M0 8C0 3.58172 3.58172 0 8 0H56C60.4183 0 64 3.58172 64 8V40C64 44.4183 60.4183 48 56 48H8C3.58172 48 0 44.4183 0 40V8Z" fill="#273469"/>
<path d="M33.713 21.471L35.576 14.518L33.645 14L32.08 19.838L33.713 21.471ZM40.207 27.965L41.621 29.379L47 24L40 17L38.586 18.414L44.172 24L40.207 27.965ZM46 36.586L19.414 10L18 11.414L23.793 17.207L17 24L24 31L25.414 29.586L19.828 24L25.207 18.621L30.884 24.298L28.423 33.482L30.355 34L32.517 25.931L44.586 38L46 36.586Z" fill="white"/>
</svg>
