<svg width="25" height="24" viewBox="0 0 25 24" fill="none" xmlns="http://www.w3.org/2000/svg">
<g clip-path="url(#clip0_17_169)">
<path d="M20.9015 3.48907C19.8012 2.37859 18.4909 1.49819 17.047 0.899182C15.603 0.300173 14.0543 -0.00546641 12.491 7.39958e-05C5.9405 7.39958e-05 0.602 5.33707 0.596 11.8891C0.596 13.9876 1.145 16.0291 2.1815 17.8366L0.5 24.0001L6.806 22.3471C8.55051 23.2964 10.5049 23.7941 12.491 23.7946H12.497C19.049 23.7946 24.386 18.4576 24.392 11.8996C24.3935 10.3366 24.0857 8.78885 23.4864 7.34539C22.8871 5.90193 22.0081 4.59132 20.9 3.48907H20.9015ZM12.491 21.7816C10.7195 21.7822 8.98055 21.3055 7.457 20.4016L7.097 20.1856L3.356 21.1666L4.355 17.5171L4.121 17.1406C3.13071 15.5661 2.60697 13.7431 2.6105 11.8831C2.6105 6.44407 7.046 2.00707 12.497 2.00707C13.7956 2.00474 15.0818 2.25949 16.2815 2.75661C17.4812 3.25374 18.5706 3.98341 19.487 4.90357C20.4065 5.82015 21.1355 6.90971 21.6319 8.10942C22.1282 9.30913 22.3822 10.5952 22.379 11.8936C22.373 17.3521 17.9375 21.7816 12.491 21.7816V21.7816ZM17.9135 14.3806C17.618 14.2321 16.1585 13.5136 15.884 13.4116C15.611 13.3141 15.4115 13.2631 15.2165 13.5601C15.017 13.8556 14.447 14.5291 14.276 14.7226C14.105 14.9221 13.928 14.9446 13.631 14.7976C13.3355 14.6476 12.377 14.3356 11.243 13.3201C10.358 12.5326 9.7655 11.5576 9.5885 11.2621C9.4175 10.9651 9.572 10.8061 9.7205 10.6576C9.851 10.5256 10.016 10.3096 10.1645 10.1386C10.3145 9.96757 10.364 9.84157 10.4615 9.64357C10.559 9.44257 10.5125 9.27157 10.439 9.12307C10.364 8.97457 9.7715 7.50907 9.521 6.91807C9.281 6.33457 9.0365 6.41557 8.8535 6.40807C8.6825 6.39757 8.483 6.39757 8.2835 6.39757C8.13285 6.40132 7.98459 6.43616 7.84804 6.49992C7.71149 6.56368 7.58959 6.65497 7.49 6.76807C7.217 7.06507 6.4535 7.78357 6.4535 9.24907C6.4535 10.7146 7.5185 12.1231 7.6685 12.3226C7.8155 12.5221 9.7595 15.5206 12.743 16.8106C13.448 17.1181 14.003 17.2996 14.4365 17.4376C15.149 17.6656 15.7925 17.6311 16.3055 17.5576C16.8755 17.4706 18.062 16.8376 18.3125 16.1431C18.5585 15.4471 18.5585 14.8531 18.4835 14.7286C18.41 14.6026 18.2105 14.5291 17.9135 14.3806V14.3806Z" fill="white"/>
</g>
<defs>
<clipPath id="clip0_17_169">
<rect width="24" height="24" fill="white" transform="translate(0.5)"/>
</clipPath>
</defs>
</svg>
